<mxfile host="Electron" agent="Mozilla/5.0 (Windows NT 10.0; Win64; x64) AppleWebKit/537.36 (KHTML, like Gecko) draw.io/26.1.1 Chrome/132.0.6834.210 Electron/34.3.3 Safari/537.36" version="26.1.1">
  <diagram name="Page-1" id="6iNddLKyWDXj98c9npOk">
    <mxGraphModel dx="1050" dy="621" grid="1" gridSize="10" guides="1" tooltips="1" connect="1" arrows="1" fold="1" page="1" pageScale="1" pageWidth="827" pageHeight="1169" math="0" shadow="0">
      <root>
        <mxCell id="0" />
        <mxCell id="1" parent="0" />
        <mxCell id="iOAVzo8UpCRa1oQ7z00F-1" value="" style="rounded=0;whiteSpace=wrap;html=1;" parent="1" vertex="1">
          <mxGeometry x="190" y="250" width="300" height="180" as="geometry" />
        </mxCell>
        <mxCell id="iOAVzo8UpCRa1oQ7z00F-2" value="A-0" style="text;html=1;align=center;verticalAlign=middle;whiteSpace=wrap;rounded=0;" parent="1" vertex="1">
          <mxGeometry x="430" y="400" width="60" height="30" as="geometry" />
        </mxCell>
        <mxCell id="iOAVzo8UpCRa1oQ7z00F-3" value="Автоматизированная система обнаружения присутствия человека в опасной зоне с учётом прохождения контрольных точек" style="text;html=1;align=center;verticalAlign=middle;whiteSpace=wrap;rounded=0;" parent="1" vertex="1">
          <mxGeometry x="190" y="290" width="300" height="100" as="geometry" />
        </mxCell>
        <mxCell id="iOAVzo8UpCRa1oQ7z00F-4" value="" style="endArrow=classic;html=1;rounded=0;entryX=0;entryY=0;entryDx=0;entryDy=0;" parent="1" edge="1">
          <mxGeometry width="50" height="50" relative="1" as="geometry">
            <mxPoint x="20" y="284" as="sourcePoint" />
            <mxPoint x="190" y="284" as="targetPoint" />
          </mxGeometry>
        </mxCell>
        <mxCell id="iOAVzo8UpCRa1oQ7z00F-5" value="&lt;div&gt;Данные с камер&lt;/div&gt;" style="text;html=1;align=center;verticalAlign=middle;whiteSpace=wrap;rounded=0;" parent="1" vertex="1">
          <mxGeometry x="60" y="254" width="100" height="30" as="geometry" />
        </mxCell>
        <mxCell id="iOAVzo8UpCRa1oQ7z00F-6" value="" style="endArrow=classic;html=1;rounded=0;entryX=0;entryY=0;entryDx=0;entryDy=0;" parent="1" edge="1">
          <mxGeometry width="50" height="50" relative="1" as="geometry">
            <mxPoint x="20" y="314.5" as="sourcePoint" />
            <mxPoint x="190" y="314.5" as="targetPoint" />
          </mxGeometry>
        </mxCell>
        <mxCell id="iOAVzo8UpCRa1oQ7z00F-7" value="&lt;div&gt;Данные с RFID-меток&lt;/div&gt;" style="text;html=1;align=center;verticalAlign=middle;whiteSpace=wrap;rounded=0;" parent="1" vertex="1">
          <mxGeometry x="40" y="285" width="130" height="30" as="geometry" />
        </mxCell>
        <mxCell id="iOAVzo8UpCRa1oQ7z00F-10" value="" style="endArrow=classic;html=1;rounded=0;entryX=0;entryY=0;entryDx=0;entryDy=0;" parent="1" edge="1">
          <mxGeometry width="50" height="50" relative="1" as="geometry">
            <mxPoint x="20" y="358" as="sourcePoint" />
            <mxPoint x="190" y="358" as="targetPoint" />
          </mxGeometry>
        </mxCell>
        <mxCell id="iOAVzo8UpCRa1oQ7z00F-11" value="&lt;div&gt;Параметры системы&lt;/div&gt;" style="text;html=1;align=center;verticalAlign=middle;whiteSpace=wrap;rounded=0;" parent="1" vertex="1">
          <mxGeometry x="50" y="329" width="120" height="30" as="geometry" />
        </mxCell>
        <mxCell id="iOAVzo8UpCRa1oQ7z00F-12" value="" style="endArrow=classic;html=1;rounded=0;entryX=0;entryY=0;entryDx=0;entryDy=0;" parent="1" edge="1">
          <mxGeometry width="50" height="50" relative="1" as="geometry">
            <mxPoint x="20" y="399" as="sourcePoint" />
            <mxPoint x="190" y="399" as="targetPoint" />
          </mxGeometry>
        </mxCell>
        <mxCell id="iOAVzo8UpCRa1oQ7z00F-13" value="Данные о сотруднике" style="text;html=1;align=center;verticalAlign=middle;whiteSpace=wrap;rounded=0;" parent="1" vertex="1">
          <mxGeometry x="40" y="369" width="130" height="30" as="geometry" />
        </mxCell>
        <mxCell id="iOAVzo8UpCRa1oQ7z00F-14" value="" style="endArrow=classic;html=1;rounded=0;entryX=0;entryY=0;entryDx=0;entryDy=0;" parent="1" edge="1">
          <mxGeometry width="50" height="50" relative="1" as="geometry">
            <mxPoint x="490" y="311.08000000000004" as="sourcePoint" />
            <mxPoint x="660" y="311.08000000000004" as="targetPoint" />
          </mxGeometry>
        </mxCell>
        <mxCell id="iOAVzo8UpCRa1oQ7z00F-15" value="&lt;div&gt;Уведомления&lt;/div&gt;" style="text;html=1;align=center;verticalAlign=middle;whiteSpace=wrap;rounded=0;" parent="1" vertex="1">
          <mxGeometry x="530" y="285.5" width="90" height="30" as="geometry" />
        </mxCell>
        <mxCell id="iOAVzo8UpCRa1oQ7z00F-16" value="" style="endArrow=classic;html=1;rounded=0;entryX=0;entryY=0;entryDx=0;entryDy=0;" parent="1" edge="1">
          <mxGeometry width="50" height="50" relative="1" as="geometry">
            <mxPoint x="490" y="365.08000000000004" as="sourcePoint" />
            <mxPoint x="660" y="365.08000000000004" as="targetPoint" />
          </mxGeometry>
        </mxCell>
        <mxCell id="iOAVzo8UpCRa1oQ7z00F-17" value="&lt;div&gt;Отчёты&lt;/div&gt;" style="text;html=1;align=center;verticalAlign=middle;whiteSpace=wrap;rounded=0;" parent="1" vertex="1">
          <mxGeometry x="545" y="336.5" width="60" height="30" as="geometry" />
        </mxCell>
        <mxCell id="iOAVzo8UpCRa1oQ7z00F-18" value="" style="endArrow=classic;html=1;rounded=0;entryX=0.25;entryY=1;entryDx=0;entryDy=0;" parent="1" edge="1">
          <mxGeometry width="50" height="50" relative="1" as="geometry">
            <mxPoint x="255" y="550" as="sourcePoint" />
            <mxPoint x="255" y="430" as="targetPoint" />
          </mxGeometry>
        </mxCell>
        <mxCell id="iOAVzo8UpCRa1oQ7z00F-19" value="&lt;div&gt;Оператор&lt;/div&gt;" style="text;html=1;align=center;verticalAlign=middle;whiteSpace=wrap;rounded=0;rotation=-90;" parent="1" vertex="1">
          <mxGeometry x="210" y="479" width="60" height="30" as="geometry" />
        </mxCell>
        <mxCell id="iOAVzo8UpCRa1oQ7z00F-20" value="" style="endArrow=classic;html=1;rounded=0;entryX=0.25;entryY=1;entryDx=0;entryDy=0;" parent="1" edge="1">
          <mxGeometry width="50" height="50" relative="1" as="geometry">
            <mxPoint x="346" y="550" as="sourcePoint" />
            <mxPoint x="346" y="430" as="targetPoint" />
          </mxGeometry>
        </mxCell>
        <mxCell id="iOAVzo8UpCRa1oQ7z00F-21" value="&lt;div&gt;Аппаратное обеспечение&lt;/div&gt;" style="text;html=1;align=center;verticalAlign=middle;whiteSpace=wrap;rounded=0;rotation=-90;" parent="1" vertex="1">
          <mxGeometry x="280" y="479" width="100" height="30" as="geometry" />
        </mxCell>
        <mxCell id="iOAVzo8UpCRa1oQ7z00F-22" value="" style="endArrow=classic;html=1;rounded=0;entryX=0.25;entryY=1;entryDx=0;entryDy=0;" parent="1" edge="1">
          <mxGeometry width="50" height="50" relative="1" as="geometry">
            <mxPoint x="440" y="550" as="sourcePoint" />
            <mxPoint x="440" y="430" as="targetPoint" />
          </mxGeometry>
        </mxCell>
        <mxCell id="iOAVzo8UpCRa1oQ7z00F-23" value="&lt;div&gt;Программное обеспечение&lt;/div&gt;" style="text;html=1;align=center;verticalAlign=middle;whiteSpace=wrap;rounded=0;rotation=-90;" parent="1" vertex="1">
          <mxGeometry x="380" y="479" width="90" height="30" as="geometry" />
        </mxCell>
        <mxCell id="iOAVzo8UpCRa1oQ7z00F-25" value="" style="endArrow=classic;html=1;rounded=0;entryX=0.25;entryY=0;entryDx=0;entryDy=0;" parent="1" edge="1">
          <mxGeometry width="50" height="50" relative="1" as="geometry">
            <mxPoint x="235" y="150" as="sourcePoint" />
            <mxPoint x="235" y="250" as="targetPoint" />
          </mxGeometry>
        </mxCell>
        <mxCell id="iOAVzo8UpCRa1oQ7z00F-26" value="&lt;div&gt;Требования безопасности&lt;/div&gt;" style="text;html=1;align=center;verticalAlign=middle;whiteSpace=wrap;rounded=0;rotation=-90;" parent="1" vertex="1">
          <mxGeometry x="170" y="180" width="90" height="30" as="geometry" />
        </mxCell>
        <mxCell id="iOAVzo8UpCRa1oQ7z00F-27" value="" style="endArrow=classic;html=1;rounded=0;entryX=0.25;entryY=0;entryDx=0;entryDy=0;" parent="1" edge="1">
          <mxGeometry width="50" height="50" relative="1" as="geometry">
            <mxPoint x="299.58" y="150" as="sourcePoint" />
            <mxPoint x="299.58" y="250" as="targetPoint" />
          </mxGeometry>
        </mxCell>
        <mxCell id="iOAVzo8UpCRa1oQ7z00F-28" value="Требования к ЭВМ" style="text;html=1;align=center;verticalAlign=middle;whiteSpace=wrap;rounded=0;rotation=-90;" parent="1" vertex="1">
          <mxGeometry x="250" y="180" width="60" height="30" as="geometry" />
        </mxCell>
        <mxCell id="iOAVzo8UpCRa1oQ7z00F-29" value="" style="endArrow=classic;html=1;rounded=0;entryX=0.25;entryY=0;entryDx=0;entryDy=0;" parent="1" edge="1">
          <mxGeometry width="50" height="50" relative="1" as="geometry">
            <mxPoint x="360" y="150" as="sourcePoint" />
            <mxPoint x="360" y="250" as="targetPoint" />
          </mxGeometry>
        </mxCell>
        <mxCell id="iOAVzo8UpCRa1oQ7z00F-30" value="&lt;p style=&quot;white-space-collapse: preserve;&quot; dir=&quot;auto&quot;&gt;Математические модели&lt;/p&gt;" style="text;html=1;align=center;verticalAlign=middle;whiteSpace=wrap;rounded=0;rotation=-90;" parent="1" vertex="1">
          <mxGeometry x="310" y="180" width="60" height="30" as="geometry" />
        </mxCell>
        <mxCell id="iOAVzo8UpCRa1oQ7z00F-31" value="" style="endArrow=classic;html=1;rounded=0;entryX=0.25;entryY=0;entryDx=0;entryDy=0;" parent="1" edge="1">
          <mxGeometry width="50" height="50" relative="1" as="geometry">
            <mxPoint x="420" y="150" as="sourcePoint" />
            <mxPoint x="420" y="250" as="targetPoint" />
          </mxGeometry>
        </mxCell>
        <mxCell id="iOAVzo8UpCRa1oQ7z00F-32" value="Требования к ИНС" style="text;html=1;align=center;verticalAlign=middle;whiteSpace=wrap;rounded=0;rotation=-90;" parent="1" vertex="1">
          <mxGeometry x="370" y="180" width="60" height="30" as="geometry" />
        </mxCell>
        <mxCell id="iOAVzo8UpCRa1oQ7z00F-33" value="" style="endArrow=classic;html=1;rounded=0;entryX=0.25;entryY=0;entryDx=0;entryDy=0;" parent="1" edge="1">
          <mxGeometry width="50" height="50" relative="1" as="geometry">
            <mxPoint x="470" y="150" as="sourcePoint" />
            <mxPoint x="470" y="250" as="targetPoint" />
          </mxGeometry>
        </mxCell>
        <mxCell id="iOAVzo8UpCRa1oQ7z00F-34" value="Законы" style="text;html=1;align=center;verticalAlign=middle;whiteSpace=wrap;rounded=0;rotation=-90;" parent="1" vertex="1">
          <mxGeometry x="430" y="180" width="60" height="30" as="geometry" />
        </mxCell>
      </root>
    </mxGraphModel>
  </diagram>
</mxfile>
